<svg id="SvgjsSvg1013" xmlns="http://www.w3.org/2000/svg" version="1.1" xmlns:xlink="http://www.w3.org/1999/xlink" xmlns:svgjs="http://svgjs.com/svgjs" width="120" height="58"><defs id="SvgjsDefs1014"></defs><path id="SvgjsPath1015" d="M774.01 1938C775.056 1914.07 794.782 1895 818.965 1895C843.148 1895 862.874 1914.07 863.9200000000001 1938L878.9300000000001 1938C877.8750000000001 1905.79 851.4330000000001 1880 818.965 1880C786.4970000000001 1880 760.0550000000001 1905.79 759 1938Z " fill="#76c7c0" transform="matrix(1,0,0,1,-759,-1880)"></path><path id="SvgjsPath1016" d="M774.01 1938C775.056 1914.07 794.782 1895 818.965 1895C833.296 1895 846.0590000000001 1901.7 854.3000000000001 1912.13L868.0250000000001 1905.45C857.1640000000001 1890.05 839.239 1880 818.9650000000001 1880C786.4970000000002 1880 760.0550000000002 1905.79 759.0000000000001 1938Z " fill="#e2534b" transform="matrix(1,0,0,1,-759,-1880)"></path></svg>