<svg id="SvgjsSvg1009" xmlns="http://www.w3.org/2000/svg" version="1.1" xmlns:xlink="http://www.w3.org/1999/xlink" xmlns:svgjs="http://svgjs.com/svgjs" width="120" height="58"><defs id="SvgjsDefs1010"></defs><path id="SvgjsPath1011" d="M631.01 1938C632.056 1914.07 651.782 1895 675.965 1895C700.148 1895 719.874 1914.07 720.9200000000001 1938L735.9300000000001 1938C734.8750000000001 1905.79 708.4330000000001 1880 675.965 1880C643.4970000000001 1880 617.0550000000001 1905.79 616 1938Z " fill="#76c7c0" transform="matrix(1,0,0,1,-616,-1880)"></path><path id="SvgjsPath1012" d="M631.01 1938C632.056 1914.07 651.782 1895 675.965 1895C684.0350000000001 1895 691.606 1897.13 698.1550000000001 1900.84L709.0550000000001 1889.9399999999998C699.5690000000001 1883.6599999999999 688.196 1879.9999999999998 675.965 1879.9999999999998C643.4970000000001 1879.9999999999998 617.0550000000001 1905.7899999999997 616 1937.9999999999998Z " fill="#e2534b" transform="matrix(1,0,0,1,-616,-1880)"></path></svg>